<mxfile host="65bd71144e">
    <diagram id="P_YENEYe2RrOOP5ny4od" name="Page-1">
        <mxGraphModel dx="684" dy="467" grid="1" gridSize="10" guides="1" tooltips="1" connect="1" arrows="1" fold="1" page="1" pageScale="1" pageWidth="850" pageHeight="1100" math="0" shadow="0">
            <root>
                <mxCell id="0"/>
                <mxCell id="1" parent="0"/>
                <mxCell id="2" value="" style="whiteSpace=wrap;html=1;fillColor=none;" vertex="1" parent="1">
                    <mxGeometry x="40" y="40" width="760" height="430" as="geometry"/>
                </mxCell>
                <mxCell id="3" value="" style="edgeStyle=none;orthogonalLoop=1;jettySize=auto;html=1;entryX=1.006;entryY=0.108;entryDx=0;entryDy=0;entryPerimeter=0;endArrow=none;endFill=0;" edge="1" parent="1" target="2">
                    <mxGeometry width="100" relative="1" as="geometry">
                        <mxPoint x="40" y="90" as="sourcePoint"/>
                        <mxPoint x="140" y="90" as="targetPoint"/>
                        <Array as="points"/>
                    </mxGeometry>
                </mxCell>
                <mxCell id="5" value="&lt;font style=&quot;font-size: 20px;&quot;&gt;Lucas Sequence Program&lt;/font&gt;" style="text;html=1;align=center;verticalAlign=middle;resizable=0;points=[];autosize=1;strokeColor=none;fillColor=none;" vertex="1" parent="1">
                    <mxGeometry x="40" y="50" width="250" height="40" as="geometry"/>
                </mxCell>
                <mxCell id="6" value="&lt;font style=&quot;font-size: 15px;&quot;&gt;Ener the term number you&#39;d like to see the answer to&lt;/font&gt;" style="text;html=1;align=center;verticalAlign=middle;resizable=0;points=[];autosize=1;strokeColor=none;fillColor=none;" vertex="1" parent="1">
                    <mxGeometry x="60" y="100" width="370" height="30" as="geometry"/>
                </mxCell>
                <mxCell id="7" value="&lt;font style=&quot;font-size: 15px;&quot;&gt;&lt;u&gt;Number...&amp;nbsp; &amp;nbsp; &amp;nbsp; &amp;nbsp; &amp;nbsp; &amp;nbsp; &amp;nbsp; &amp;nbsp; &amp;nbsp; &amp;nbsp; &amp;nbsp; &amp;nbsp; &amp;nbsp;&lt;/u&gt;&lt;/font&gt;" style="text;html=1;align=center;verticalAlign=middle;resizable=0;points=[];autosize=1;strokeColor=none;fillColor=none;" vertex="1" parent="1">
                    <mxGeometry x="70" y="140" width="190" height="30" as="geometry"/>
                </mxCell>
                <mxCell id="9" value="&lt;font style=&quot;font-size: 15px;&quot;&gt;The answer is: [termAnswer]&lt;/font&gt;" style="text;html=1;align=center;verticalAlign=middle;resizable=0;points=[];autosize=1;strokeColor=none;fillColor=none;" vertex="1" parent="1">
                    <mxGeometry x="60" y="190" width="210" height="30" as="geometry"/>
                </mxCell>
                <mxCell id="10" value="" style="shape=image;verticalLabelPosition=bottom;labelBackgroundColor=default;verticalAlign=top;aspect=fixed;imageAspect=0;image=data:image/svg+xml,PHN2ZyB4bWxucz0iaHR0cDovL3d3dy53My5vcmcvMjAwMC9zdmciIHdpZHRoPSI5OTguODE3NTciIHZpZXdCb3g9IjY5MS4yMTIgLTQxMi43MTkgOTk4LjgxNzU0IDYxNy45OTYzMyIgaGVpZ2h0PSI2MTcuOTk2MzQiPgogICA8ZyB0cmFuc2Zvcm09InRyYW5zbGF0ZSgtMS41NTMxMTQgLTEuOTg2MTk0MSkiPgogICAgICA8ZyB0cmFuc2Zvcm09InRyYW5zbGF0ZSgtMTAuMTg4MSAtMTEuMDExMDk0KSI+CiAgICAgICAgIDxnIHRyYW5zZm9ybT0ibWF0cml4KDMuNjY2MzYxMSAwIDAgMy42NjYzNjExIC0xNC45OTYzMzQgLTMwNTQuNzU3NSkiPgogICAgICAgICAgICA8ZyB0cmFuc2Zvcm09InRyYW5zbGF0ZSg2LjM0ODIxNDIgLTUuMDYyNDc3OSkiPgogICAgICAgICAgICAgICA8cGF0aCBzdHJva2Utd2lkdGg9Ii4yNSIgc3Ryb2tlPSIjMDAwIiBmaWxsPSIjY2ZiZmZmIiBkPSJtMzgxLjc3NiA3NzguNzhoMTZ2MTQuODc2aC0xNnoiLz4KICAgICAgICAgICAgICAgPHBhdGggZmlsbD0iI2JmZmZlZiIgZD0ibTM1Ny43NzUgNzY5LjY1N2gyNHYyNGgtMjR6Ii8+CiAgICAgICAgICAgICAgIDxwYXRoIGZpbGw9IiNmZmJmY2YiIGQ9Im0zNTcuNzc1IDcyOS42NTdoNDB2NDBoLTQweiIvPgogICAgICAgICAgICAgICA8cGF0aCBmaWxsPSIjZWZmZmJmIiBkPSJtMzk3Ljc3NSA3MjkuNjU3aDY0djY0aC02NHoiLz4KICAgICAgICAgICAgICAgPHBhdGggZmlsbD0iI2ZmYmZjZiIgZD0ibTM1Ny43NzUgNzkzLjY1N2gxMDR2MTA0aC0xMDR6Ii8+CiAgICAgICAgICAgICAgIDxwYXRoIGZpbGw9IiNjZmJmZmYiIGQ9Im0xODkuNzc1IDcyOS42NTdoMTY4djE2OGgtMTY4eiIvPgogICAgICAgICAgICA8L2c+CiAgICAgICAgICAgIDxnIHRyYW5zZm9ybT0idHJhbnNsYXRlKC00MTMuNjUxNzggNTQuOTM3NTIyKSIgc3Ryb2tlLXdpZHRoPSIuMjUiIHN0cm9rZT0iIzAwMCIgZmlsbD0ibm9uZSI+CiAgICAgICAgICAgICAgIDxwYXRoIHN0cm9rZS13aWR0aD0iLjI1MDExMTc1IiBkPSJtNzc3Ljc3NSA3MDkuNjU3aDI0djI0aC0yNHoiLz4KICAgICAgICAgICAgICAgPHBhdGggZD0ibTc3Ny43NzUgNjY5LjY1N2g0MHY0MGgtNDB6Ii8+CiAgICAgICAgICAgICAgIDxwYXRoIGQ9Im04MTcuNzc1IDY2OS42NTdoNjR2NjRoLTY0eiIvPgogICAgICAgICAgICAgICA8cGF0aCBkPSJtNzc3Ljc3NSA3MzMuNjU3aDEwNHYxMDRoLTEwNHoiLz4KICAgICAgICAgICAgICAgPHBhdGggZD0ibTYwOS43NzUgNjY5LjY1N2gxNjh2MTY4aC0xNjh6Ii8+CiAgICAgICAgICAgIDwvZz4KICAgICAgICAgICAgPGc+CiAgICAgICAgICAgICAgIDxwYXRoIGQ9Im0zNzguOCA3NDQuMTI1aC0yLjYzM3YtMS4xMjVjLjc3NS4wMTYgMS40MDYtLjE1MSAxLjg5MS0uNS40ODktLjM1NC44NTItLjkwMSAxLjA4Ni0xLjY0MWgxLjE0OHYxMS4yNWgtLjc0Mi0uNzV6Ii8+CiAgICAgICAgICAgICAgIDxwYXRoIGQ9Im0zODkuODM5IDc0Ni4xNTZjLjMwMi4xMzYuNTc4LjMwNS44MjguNTA4LjcwMy41NjggMS4wNTUgMS4zMTggMS4wNTUgMi4yNSAwIDEuMDUyLS4zNTIgMS44OTgtMS4wNTUgMi41MzktLjcwMy42NDEtMS42MzEuOTYxLTIuNzgxLjk2MS0xLjE1MSAwLTIuMDc3LS4zMi0yLjc3Ny0uOTYxLS43MDEtLjY0MS0xLjA1MS0xLjQ4Ny0xLjA1MS0yLjUzOSAwLS45MzIuMzUyLTEuNjg1IDEuMDU1LTIuMjU4LjI0NC0uMTk4LjUxNi0uMzYyLjgxMy0uNDkyLS4xODgtLjEwNC0uMzY3LS4yMTktLjUzOS0uMzQ0LS42MzEtLjQ4OS0uOTQ1LTEuMTM1LS45NDUtMS45MzggMC0uOTA2LjMxNi0xLjYzNy45NDktMi4xOTEuNjMzLS41NTQgMS40NjUtLjgzMiAyLjQ5Ni0uODMyIDEuMDMxIDAgMS44NjMuMjc3IDIuNDk2LjgzMi42MzMuNTU1Ljk0OSAxLjI4NS45NDkgMi4xOTEgMCAuODAyLS4zMTggMS40NDgtLjk1MyAxLjkzOC0uMTY3LjEzLS4zNDcuMjQyLS41NC4zMzZ6bS0xLjk1My42MzNjLS42ODggMC0xLjI0OS4yMDUtMS42ODQuNjEzLS40MzYuNDA5LS42NTIuOTM0LS42NTIgMS41NzQgMCAuNjM2LjIxNyAxLjE1Ni42NTIgMS41NjMuNDM1LjQwNi45OTYuNjA5IDEuNjg0LjYwOS42ODggMCAxLjI1LS4yMDMgMS42ODgtLjYwOS40MzgtLjQwNi42NTYtLjkyNy42NTYtMS41NjMgMC0uNjQxLS4yMTktMS4xNjctLjY1Ni0xLjU3OC0uNDM3LS40MDYtMS4wMDEtLjYwOS0xLjY4OC0uNjA5em0wLTEuMjE5Yy41NzIgMCAxLjA0MS0uMTYgMS40MDYtLjQ4LjM2NC0uMzIuNTQ3LS43MzMuNTQ3LTEuMjM4IDAtLjUwNS0uMTgzLS45MTktLjU0Ny0xLjI0Mi0uMzY1LS4zMjMtLjgzNC0uNDg0LTEuNDA2LS40ODQtLjU3MyAwLTEuMDQyLjE2Mi0xLjQwNi40ODQtLjM2NS4zMjMtLjU0Ny43MzctLjU0NyAxLjI0MiAwIC41MDUuMTgyLjkxOS41NDcgMS4yNDIuMzY0LjMxNy44MzMuNDc2IDEuNDA2LjQ3NnoiLz4KICAgICAgICAgICAgPC9nPgogICAgICAgICAgICA8Zz4KICAgICAgICAgICAgICAgPHBhdGggZD0ibTQzNS4zNzYgNzUyLjUxYzAgMS4wODctLjI3OSAxLjk4MS0uODM2IDIuNjgyLS41NTguNzAxLTEuNjA0IDEuNDc1LTMuMTQzIDIuMzIyLTEuNjY4LjkxNi0yLjgwNyAxLjc1My0zLjQxNSAyLjUxMi0uMjUzLjMyOC0uNDYxLjY5Ny0uNjI1IDEuMTA3aDguMDE5djEuNzk0aC0xMC4xMXYtLjAwMmMwLTEuNTUxLjM4Ni0yLjgyMSAxLjE1OC0zLjgwOC43NzItLjk4NyAyLjIyMi0yLjA2NSA0LjM0OC0zLjIzNCAxLjAzMi0uNTc1IDEuNzM2LTEuMTAyIDIuMTEyLTEuNTgyLjM3Ni0uNDguNTY0LTEuMDk2LjU2NC0xLjg0OSAwLS43ODctLjI4LTEuNDMxLS44NDEtMS45MzEtLjU2MS0uNS0xLjI3OC0uNzUtMi4xNTMtLjc1LS45MTYgMC0xLjYzNi4zMTMtMi4xNTkuOTQxLS41MjIuNjI3LS44MDEgMS41MTctLjgzNSAyLjY2OGgtMS43OTVjLS4wMjctMS42MjcuNDA3LTIuOTAzIDEuMzAzLTMuODMuODk2LS45MjcgMi4xNDMtMS4zOSAzLjc0Mi0xLjM5IDEuMzY3IDAgMi40ODguNDA3IDMuMzYzIDEuMjIuODcuODA5IDEuMzAzIDEuODUxIDEuMzAzIDMuMTN6Ii8+CiAgICAgICAgICAgICAgIDxwYXRoIGQ9Im00NDEuODQ3IDc2My4zMjdjLTEuMzA2IDAtMi4zNDctLjM1MS0zLjEyMi0xLjA1MS0uNzc2LS43LTEuMTkxLTEuNjY2LTEuMjQ2LTIuODk2aDEuNzg0Yy4wNzUuNzU5LjMzNyAxLjM0NS43ODQgMS43NTkuNDQ4LjQxNCAxLjA0OC42MiAxLjguNjIgMS4xMDcgMCAxLjk2Mi0uNjE5IDIuNTYzLTEuODU2LjQzOC0uOTIzLjcyMi0yLjEzNi44NTItMy42NC0uOTE2IDEuMTI4LTIuMDU1IDEuNjkyLTMuNDE1IDEuNjkyLTEuMzY3IDAtMi40Ny0uNDQ5LTMuMzA3LTEuMzQ4LS44MzgtLjg5OS0xLjI1Ni0yLjA4My0xLjI1Ni0zLjU1MyAwLTEuNDcuNDU0LTIuNjUyIDEuMzYzLTMuNTQ4LjkwOS0uODk2IDIuMTA5LTEuMzQzIDMuNi0xLjM0MyAxLjU4NiAwIDIuODA4LjU2MyAzLjY2NSAxLjY4Ny44NTggMS4xMjUgMS4yODcgMi43MjMgMS4yODcgNC43OTQgMCAyLjc4Mi0uNDY1IDQuOTI1LTEuMzk1IDYuNDI5LS45MzEgMS41MDQtMi4yNSAyLjI1NC0zLjk1NyAyLjI1NHptMy4xOTctMTAuMjc0YzAtLjk1LS4yNy0xLjcyNi0uODEtMi4zMjgtLjU0LS42MDItMS4yMzctLjkwMi0yLjA5Mi0uOTAyLS44NTUgMC0xLjU1Mi4zMDEtMi4wOTIuOTAyLS41NC42MDEtLjgxMSAxLjM3Ny0uODExIDIuMzI4IDAgLjk1MS4yNzEgMS43MjguODExIDIuMzMzLjU0LjYwNSAxLjIzNy45MDggMi4wOTIuOTA4Ljg1NSAwIDEuNTUyLS4zMDQgMi4wOTItLjkxMy41NDEtLjYwMi44MS0xLjM3OC44MS0yLjMyOHoiLz4KICAgICAgICAgICAgPC9nPgogICAgICAgICAgICA8Zz4KICAgICAgICAgICAgICAgPHBhdGggZD0ibTM5OS42NDEgODQ2LjQzM3YtMS4zOTUtMS4zOTVsMTEuMDU3LTE1LjM5aDEuMjQ1IDEuMjQ1djE1LjYyMmgzLjM4N3YyLjU1N2gtMy4zODd2NS43MjhoLTMuMDA1di01LjcyOGgtMTAuNTQyem0xMC41NDItMi41NTd2LTEwLjg5NGwtNy42MTkgMTAuNjYxLS4xNjYuMjMyeiIvPgogICAgICAgICAgICAgICA8cGF0aCBkPSJtNDIyLjQyIDg1Mi4xNjJjLjc2NC00LjAwNyAxLjk3MS03LjcxNCAzLjYyMS0xMS4xMjMgMS42MTctMy4yOTggMy42OTktNi40MzEgNi4yNDctOS4zOTZoLTEzLjMyMnYtMi45MDVoMTYuNTE5djEuMzI4IDEuMzI4Yy0yLjYxMiAzLjA3Ny00LjcxNSA2LjMwOS02LjMwOSA5LjY5NS0xLjU5NCAzLjM5OC0yLjczMyA3LjA4OS0zLjQyIDExLjA3M3oiLz4KICAgICAgICAgICAgPC9nPgogICAgICAgICAgICA8Zz4KICAgICAgICAgICAgICAgPHBhdGggZD0ibTI1Ny4zMDYgODI2LjQ4NmMxLjE2OC02LjEyOCAzLjAxNS0xMS43OTggNS41MzktMTcuMDEyIDIuNDczLTUuMDQ0IDUuNjU4LTkuODM0IDkuNTU0LTE0LjM3MWgtMjAuMzc0di00LjQ0M2gyNS4yNjR2Mi4wMzEgMi4wMzFjLTMuOTk1IDQuNzA2LTcuMjExIDkuNjQ4LTkuNjQ4IDE0LjgyOC0yLjQzOCA1LjE5Ny00LjE4MSAxMC44NDItNS4yMyAxNi45MzZ6Ii8+CiAgICAgICAgICAgICAgIDxwYXRoIGQ9Im0yOTQuNDc3IDc4OS45MjNjMy4yMTYgMCA1Ljc3Ni44NjggNy42ODEgMi42MDMgMS45MDQgMS43MzUgMi45MjQgNC4xMjYgMy4wNiA3LjE3M2gtNC41MmMtLjE2OS0xLjgxMS0uNzk2LTMuMjA4LTEuODc5LTQuMTg5LTEuMDgzLS45ODEtMi41MzEtMS40NzMtNC4zNDItMS40NzMtMi44MjcgMC01LjAwMiAxLjM1NC02LjUyNSA0LjA2My0xLjMyIDIuMzE5LTIuMDQ4IDUuNDc2LTIuMTg0IDkuNDcxIDIuMjY4LTIuODk1IDUuMTYzLTQuMzQyIDguNjg0LTQuMzQyIDMuNDUzIDAgNi4yMzMgMS4xMTMgOC4zNDEgMy4zMzkgMi4xMDcgMi4yMjYgMy4xNjEgNS4xNTkgMy4xNjEgOC43OTggMCAzLjY0LTEuMTQ3IDYuNTY3LTMuNDQgOC43ODUtMi4yOTQgMi4yMTgtNS4zMTEgMy4zMjYtOS4wNTIgMy4zMjYtMy45OTUgMC03LjA3MS0xLjU0NC05LjIyOS00LjYzNC0yLjE1OC0zLjA4OS0zLjIzNy03LjQ4Ni0zLjIzNy0xMy4xOSAwLTYuMzEzIDEuMTc2LTExLjE4IDMuNTI5LTE0LjYgMi4zMzUtMy40MiA1LjY1Mi01LjEzIDkuOTUyLTUuMTN6bS04LjE1MSAyNS40NDFjMCAyLjM1My42ODkgNC4yNzQgMi4wNjkgNS43NjQgMS4zNzkgMS40ODkgMy4xNTIgMi4yMzQgNS4zMTkgMi4yMzQgMi4xNjcgMCAzLjkzOS0uNzQ1IDUuMzE5LTIuMjM0IDEuMzc5LTEuNDg5IDIuMDY5LTMuNDExIDIuMDY5LTUuNzY0IDAtMi4zNTMtLjY5LTQuMjc4LTIuMDY5LTUuNzc2LTEuMzgtMS40OTgtMy4xNTMtMi4yNDctNS4zMTktMi4yNDctMi4xNjcgMC0zLjk0NC43NTMtNS4zMzIgMi4yNi0xLjM3IDEuNDktMi4wNTYgMy40MTEtMi4wNTYgNS43NjN6Ii8+CiAgICAgICAgICAgIDwvZz4KICAgICAgICAgPC9nPgogICAgICAgICA8cGF0aCBkPSJtMTM1NC4yMzItMjIxLjQ2MWgtLjA4bC00LjU1NyAyLjQ2LS42ODgtMi43MDIgNS43MjktMy4wNjVoMy4wMjJ2MjYuMjE4aC0zLjQzdi0yMi45MTFsMCAweiIvPgogICAgICAgICA8cGF0aCBkPSJtMTM3NC45MjEtMjIxLjQ2MWgtLjA4bC00LjU2IDIuNDYtLjY4Ni0yLjcwMiA1LjcyNy0zLjA2NWgzLjAyNXYyNi4yMThoLTMuNDMxdi0yMi45MTFoLjAxeiIvPgogICAgICAgICA8cGF0aCBkPSJtMTQ0Mi40MjEtMjAwLjI4NXYxLjcwMmwtOC4zMDMgMTcuMzUzaC0yLjY2OGw4LjI3MS0xNi44NTh2LS4wNTloLTkuMzJ2LTIuMTQxaDEyLjAyMXoiLz4KICAgICAgPC9nPgogICAgICA8ZyB0cmFuc2Zvcm09InRyYW5zbGF0ZSgtMTAuMTg4MSAtMTEuMDExMDk0KSIgc3Ryb2tlLXdpZHRoPSIuOTE3Ij4KICAgICAgICAgPHBhdGggc3Ryb2tlLW1pdGVybGltaXQ9IjEwIiBzdHJva2U9IiMyMzFmMjAiIGZpbGw9IiNjZmJmZmYiIGQ9Im0xNDA4LjA4Ny0yNTEuNDcyaDI1LjA1N3YzMy40NDNoLTI1LjA1N3oiLz4KICAgICAgICAgPHBhdGggc3Ryb2tlLW1pdGVybGltaXQ9IjEwIiBzdHJva2U9IiMyMzFmMjAiIGZpbGw9IiNiZmZmZWYiIGQ9Im0xNDMzLjE0My0yNTEuNDcyaDMzLjQ0MnYzMy40NDNoLTMzLjQ0MnoiLz4KICAgICAgICAgPHBhdGggc3Ryb2tlPSIjMDAwIiBmaWxsPSIjZWZmZmJmIiBkPSJtMTQxNi40Ni0yMzQuNzVoMTYuNjg0djE2LjcyMmgtMTYuNjg0eiIvPgogICAgICAgICA8cGF0aCBzdHJva2UtbWl0ZXJsaW1pdD0iMTAiIHN0cm9rZT0iIzIzMWYyMCIgZmlsbD0iI2ZmYmZjZiIgZD0ibTE0MDguMDg3LTIyNi4zOTZoOC4zNzN2OC4zNjdoLTguMzczeiIvPgogICAgICA8L2c+CiAgICAgIDxnIHRyYW5zZm9ybT0idHJhbnNsYXRlKC0xMC4xODgxIC0xMS4wMTEwOTQpIj4KICAgICAgICAgPHBhdGggZD0ibTE0MTMuMDQwNi0yMjQuMjcwMDhoLS4wMTNsLS42ODU3LjM3MTgzLS4xMDI3LS40MDg5My44NjE2LS40NjEyM2guNDU0NnYzLjk0MjgyaC0uNTE2NHoiLz4KICAgICAgICAgPHBhdGggZD0ibTE0MjEuOTEwNC0yMjQuMTEzMDh2LS42MDk1NmwuNzgxLS43NTU3YzEuODY5Ny0xLjc4MDM5IDIuNzE1Ny0yLjcyODQxIDIuNzI4My0zLjgzNDA3IDAtLjc0NTE3LS4zNjE1LTEuNDMzNTktMS40NTc3LTEuNDMzNTktLjY2MzEgMC0xLjIxOTEuMzM4NDQtMS41NTY2LjYyMTE1bC0uMzEyLS42OTk5NmMuNTA1NC0uNDI4ODEgMS4yMzE2LS43NDUxNiAyLjA3MjYtLjc0NTE2IDEuNTgxNiAwIDIuMjQ4IDEuMDgzNTggMi4yNDggMi4xMzI0OCAwIDEuMzUxNjEtLjk4NTkgMi40NDY3Ni0yLjUyNzcgMy45MzcwOWwtLjU4OTcuNTQyMzF2LjAyMmgzLjI5NHYuODIzOTd6Ii8+CiAgICAgICAgIDxwYXRoIGZpbGw9IiMyMzFmMjAiIGQ9Im0xNDIyLjQzNi0yMzguNTU4Yy4zNzEuMjM1IDEuMjE5LjYwMiAyLjExMy42MDIgMS42NTEgMCAyLjE3LTEuMDU2IDIuMTQ5LTEuODQ4LS4wMTYtMS4zMzQtMS4yMTUtMS45MDYtMi40NjEtMS45MDZoLS43MTl2LS45NjhoLjcxOWMuOTM5IDAgMi4xMjMtLjQ4NCAyLjEyMy0xLjYwOSAwLS43NjMtLjQ4MS0xLjQzOC0xLjY2OC0xLjQzOC0uNzY0IDAtMS40OTYuMzM4LTEuOTEuNjMxbC0uMzM4LS45MzhjLjQ5OC0uMzY3IDEuNDY3LS43MzMgMi40OTItLjczMyAxLjg3OSAwIDIuNzI5IDEuMTE1IDIuNzI5IDIuMjczIDAgLjk4My0uNTg2IDEuODE5LTEuNzYgMi4yNDR2LjAyOWMxLjE3NC4yMzMgMi4xMjcgMS4xMTMgMi4xMjcgMi40NDggMCAxLjUyNS0xLjE4OCAyLjg1Ni0zLjQ3MyAyLjg1Ni0xLjA3IDAtMi4wMTEtLjMzNy0yLjQ4LS42NDZ6Ii8+CiAgICAgICAgIDxwYXRoIGQ9Im0xNDUyLjQyMi0yMjYuMTJ2LTQuMjQ5aC03LjI0OHYtMS4zOTJsNi45NTktOS45NjFoMi4yNzh2OS42OTdoMi4xODd2MS42NTZoLTIuMTg3djQuMjQ5em0wLTUuOTA1di01LjIwOGMwLS44MTYuMDIyLTEuNjMyLjA2OS0yLjQ0OGgtLjA2OWMtLjQ4LjkxMi0uODY1IDEuNTg0LTEuMjk4IDIuMzA0bC0zLjgxNSA1LjMwNHYuMDQ4eiIvPgogICAgICA8L2c+CiAgIDwvZz4KICAgPHBhdGggc3R5bGU9ImZpbGw6bm9uZTtzdHJva2U6IzAwMDBiNTtzdHJva2Utd2lkdGg6Mi4yMTc2MDAxMTtzdHJva2UtbGluZWNhcDpyb3VuZDtzdHJva2UtbGluZWpvaW46cm91bmQ7c3Ryb2tlLW1pdGVybGltaXQ6MTAiIGQ9Im02OTIuMzIwODktNDA5LjkyOTE5YzAgMzQwLjYzODk5NiAyNzQuNjQzIDYxMy4zMTYgNjE1LjM1MjAxIDYxMy4zMTYgMjEwLjQ0NyAwIDM4MS4wNDctMTcwLjU2NzAwNCAzODEuMDQ3LTM4MC45NzEgMC0xMzAuMjQyLTEwNS42MDMtMjMzLjgyNi0yMzUuODcyLTIzMy44MjYtODAuMDYzIDAtMTQ0Ljk2NiA2Mi44OTEtMTQ0Ljk2NiAxNDIuOTM1IDAgNTAuMTk0IDQwLjQ3NSA5MC44ODQgOTAuNCA5MC44ODQgMzAuMTgzIDAgNTYuNjQ2LTI0LjQ2MSA1Ni42NDYtNTQuNjM1IDAtMTkuODk4LTkuMTA1LTMzLjA0OS0zNi4xMzMtMzIuMDI5LTEwLjIyMS4zODYtMjMuNzI4NiA5LjgwMzIyLTIyLjc5MTYgMjUuMDM3MjIgMCAwLS40ODA2IDguMTYxMjEgOC44MzA0IDguMTYzMjEgMCAwIDE2LjU2OTIgMS4xMTg1NyAxNi41NjkyLTE2LjQ5MjQzIi8+Cjwvc3ZnPg==;" vertex="1" parent="1">
                    <mxGeometry x="570" y="90" width="219" height="135.48" as="geometry"/>
                </mxCell>
            </root>
        </mxGraphModel>
    </diagram>
</mxfile>